<?xml version="1.0" encoding="UTF-8" standalone="no"?>
<!-- Created with Inkscape (http://www.inkscape.org/) -->

<svg
   xmlns:dc="http://purl.org/dc/elements/1.1/"
   xmlns:cc="http://creativecommons.org/ns#"
   xmlns:rdf="http://www.w3.org/1999/02/22-rdf-syntax-ns#"
   xmlns:svg="http://www.w3.org/2000/svg"
   xmlns="http://www.w3.org/2000/svg"
   xmlns:sodipodi="http://sodipodi.sourceforge.net/DTD/sodipodi-0.dtd"
   xmlns:inkscape="http://www.inkscape.org/namespaces/inkscape"
   width="323.60309"
   height="199.75212"
   viewBox="0 0 85.619982 52.851084"
   version="1.1"
   id="svg11276"
   inkscape:version="0.92+devel unknown"
   sodipodi:docname="picto-responsive.svg">
  <defs
     id="defs11270">
    <clipPath
       clipPathUnits="userSpaceOnUse"
       id="clipPath5197">
      <path
         d="m 6491.51,7757.52 h 372.65 v -271.11 h -372.65 z"
         id="path5195"
         inkscape:connector-curvature="0" />
    </clipPath>
    <clipPath
       clipPathUnits="userSpaceOnUse"
       id="clipPath5229">
      <path
         d="m 6741.68,7566.26 h 229.98 v -181.95 h -229.98 z"
         id="path5227"
         inkscape:connector-curvature="0" />
    </clipPath>
    <clipPath
       clipPathUnits="userSpaceOnUse"
       id="clipPath5261">
      <path
         d="m 6397.73,7609.7 h 136.19 v -231.47 h -136.19 z"
         id="path5259"
         inkscape:connector-curvature="0" />
    </clipPath>
    <clipPath
       clipPathUnits="userSpaceOnUse"
       id="clipPath5293">
      <path
         d="m 6515.39,7474.92 h 57.46 v -118.86 h -57.46 z"
         id="path5291"
         inkscape:connector-curvature="0" />
    </clipPath>
  </defs>
  <sodipodi:namedview
     id="base"
     pagecolor="#ffffff"
     bordercolor="#666666"
     borderopacity="1.0"
     inkscape:pageopacity="0.0"
     inkscape:pageshadow="2"
     inkscape:zoom="0.35"
     inkscape:cx="-11.055604"
     inkscape:cy="202.73323"
     inkscape:document-units="mm"
     inkscape:current-layer="layer1"
     inkscape:document-rotation="0"
     showgrid="false"
     units="px"
     fit-margin-top="0"
     fit-margin-left="0"
     fit-margin-right="0"
     fit-margin-bottom="0"
     inkscape:window-width="1600"
     inkscape:window-height="836"
     inkscape:window-x="0"
     inkscape:window-y="0"
     inkscape:window-maximized="1" />
  <metadata
     id="metadata11273">
    <rdf:RDF>
      <cc:Work
         rdf:about="">
        <dc:format>image/svg+xml</dc:format>
        <dc:type
           rdf:resource="http://purl.org/dc/dcmitype/StillImage" />
        <dc:title></dc:title>
      </cc:Work>
    </rdf:RDF>
  </metadata>
  <g
     inkscape:label="Calque 1"
     inkscape:groupmode="layer"
     id="layer1"
     transform="translate(107.8219,-149.62208)">
    <g
       transform="translate(-114.83787,-143.61653)"
       id="g10097"
       inkscape:export-xdpi="87"
       inkscape:export-ydpi="87">
      <path
         inkscape:connector-curvature="0"
         id="path5167"
         style="fill:#999999;fill-opacity:1;fill-rule:nonzero;stroke:none;stroke-width:0.13164753"
         d="M 76.377358,326.67708 H 21.1636 v -30.98589 h 55.213758 z m 0.60085,-33.43847 H 20.562909 c -0.660897,0 -1.201556,0.54067 -1.201556,1.20128 v 34.49007 h 58.818405 v -34.49007 c 0,-0.66061 -0.54095,-1.20128 -1.20155,-1.20128" />
      <g
         style="fill:#999999"
         transform="matrix(0.13164753,0,0,-0.13164753,19.361353,328.92993)"
         id="g5169">
        <path
           inkscape:connector-curvature="0"
           id="path5171"
           style="fill:#999999;fill-opacity:1;fill-rule:nonzero;stroke:none"
           d="m 0,0 v -29.658 c 0,-5.02 4.107,-9.127 9.126,-9.127 H 437.66 c 5.018,0 9.127,4.107 9.127,9.127 V 0 Z" />
      </g>
      <g
         transform="matrix(0.13164753,0,0,-0.13164753,49.099268,294.46643)"
         id="g5173">
        <path
           inkscape:connector-curvature="0"
           id="path5175"
           style="fill:#fbfbfb;fill-opacity:1;fill-rule:nonzero;stroke:none"
           d="m 0,0 c 0,-1.378 -1.119,-2.495 -2.496,-2.495 -1.379,0 -2.495,1.117 -2.495,2.495 0,1.377 1.116,2.494 2.495,2.494 C -1.119,2.494 0,1.377 0,0" />
      </g>
      <path
         inkscape:connector-curvature="0"
         id="path5177"
         style="fill:#f92ac2;fill-opacity:1;fill-rule:nonzero;stroke:none;stroke-width:0.13164753"
         d="M 76.377358,326.67708 H 21.1636 v -30.98589 h 55.213758 z" />
      <g
         style="fill:#808080"
         transform="matrix(0.13164753,0,0,-0.13164753,58.231728,340.10538)"
         id="g5179">
        <path
           inkscape:connector-curvature="0"
           id="path5181"
           style="fill:#808080;fill-opacity:1;fill-rule:nonzero;stroke:none"
           d="m 0,0 h -143.733 c -2.51,0 -4.562,-1.819 -4.562,-4.041 V -8.08 h 4.562 H 0 4.562 v 4.039 C 4.562,-1.819 2.509,0 0,0" />
      </g>
      <g
         style="fill:#999999"
         transform="matrix(0.13164753,0,0,-0.13164753,42.526618,334.03589)"
         id="g5183">
        <path
           inkscape:connector-curvature="0"
           id="path5185"
           style="fill:#999999;fill-opacity:1;fill-rule:nonzero;stroke:none"
           d="m 0,0 -10.665,-46.104 h 116.19 L 94.863,0 Z" />
      </g>
      <g
         style="fill:#808080"
         transform="matrix(0.13164753,0,0,-0.13164753,55.015088,334.03589)"
         id="g5187">
        <path
           inkscape:connector-curvature="0"
           id="path5189"
           style="fill:#808080;fill-opacity:1;fill-rule:nonzero;stroke:none"
           d="m 0,0 h -94.863 l 46.107,-46.104 h 59.418 z" />
      </g>
      <g
         id="g5191"
         transform="matrix(0.13164753,0,0,-0.13164753,-835.22995,1314.4968)">
        <g
           id="g5193" />
        <g
           id="g5205">
          <g
             id="g5203"
             opacity="0.100006"
             clip-path="url(#clipPath5197)">
            <g
               id="g5201"
               transform="translate(6864.1626,7757.5186)">
              <path
                 inkscape:connector-curvature="0"
                 id="path5199"
                 style="fill:#ffffff;fill-opacity:1;fill-rule:nonzero;stroke:none"
                 d="m 0,0 h -363.525 c -5.019,0 -9.126,-4.106 -9.126,-9.125 v -261.987 h 101.539 z" />
            </g>
          </g>
        </g>
      </g>
      <path
         inkscape:connector-curvature="0"
         id="path5207"
         style="fill:#00f4d9;fill-opacity:1;fill-rule:nonzero;stroke:none;stroke-width:0.13164753"
         d="m 87.351098,341.37263 h -34.21861 v -21.67169 h 34.21861 z" />
      <path
         inkscape:connector-curvature="0"
         id="path5209"
         style="fill:#666666;fill-opacity:1;fill-rule:nonzero;stroke:none;stroke-width:0.13164753"
         d="m 87.351098,341.37263 h -34.21861 v -21.67169 h 34.21861 z m -0.0761,-22.95484 h -34.06658 c -0.50185,0 -0.91245,0.4106 -0.91245,0.91257 v 23.04069 h 35.89147 v -23.04069 c 0,-0.50197 -0.41034,-0.91257 -0.91244,-0.91257" />
      <g
         style="fill:#808080"
         transform="matrix(0.13164753,0,0,-0.13164753,92.635958,343.6922)"
         id="g5211">
        <path
           inkscape:connector-curvature="0"
           id="path5213"
           style="fill:#808080;fill-opacity:1;fill-rule:nonzero;stroke:none"
           d="m 0,0 c 0,-1.43 -1.169,-2.6 -2.599,-2.6 h -335.017 c -1.429,0 -2.599,1.17 -2.599,2.6 v 7.437 c 0,1.429 1.17,2.598 2.599,2.598 H -2.599 C -1.169,10.035 0,8.866 0,7.437 Z" />
      </g>
      <g
         transform="matrix(0.13164753,0,0,-0.13164753,70.465088,319.05328)"
         id="g5215">
        <path
           inkscape:connector-curvature="0"
           id="path5217"
           style="fill:#fbfbfb;fill-opacity:1;fill-rule:nonzero;stroke:none"
           d="m 0,0 c 0,-0.938 -0.759,-1.699 -1.697,-1.699 -0.938,0 -1.697,0.761 -1.697,1.699 0,0.936 0.759,1.698 1.697,1.698 C -0.759,1.698 0,0.936 0,0" />
      </g>
      <g
         transform="matrix(0.13164753,0,0,-0.13164753,66.800708,342.37111)"
         id="g5219">
        <path
           inkscape:connector-curvature="0"
           id="path5221"
           style="fill:#f0f0f0;fill-opacity:1;fill-rule:nonzero;stroke:none"
           d="M 0,0 V -2.021 C 0,-3.45 1.171,-4.62 2.599,-4.62 h 47.078 c 1.429,0 2.599,1.17 2.599,2.599 V 0 Z" />
      </g>
      <g
         id="g5223"
         transform="matrix(0.13164753,0,0,-0.13164753,-835.22995,1314.4968)">
        <g
           id="g5225" />
        <g
           id="g5237">
          <g
             id="g5235"
             opacity="0.100006"
             clip-path="url(#clipPath5229)">
            <g
               id="g5233"
               transform="translate(6971.6558,7566.2568)">
              <path
                 inkscape:connector-curvature="0"
                 id="path5231"
                 style="fill:#ffffff;fill-opacity:1;fill-rule:nonzero;stroke:none"
                 d="m 0,0 h -223.041 c -3.812,0 -6.931,-3.119 -6.931,-6.932 V -181.95 h 48.021 z" />
            </g>
          </g>
        </g>
      </g>
      <path
         inkscape:connector-curvature="0"
         id="path5239"
         style="fill:#00101a;fill-opacity:1;fill-rule:nonzero;stroke:none;stroke-width:0.13164753"
         d="M 27.235449,340.0089 H 8.4427677 V 315.78062 H 27.235449 Z" />
      <path
         inkscape:connector-curvature="0"
         id="path5241"
         style="fill:#999999;fill-opacity:1;fill-rule:nonzero;stroke:none;stroke-width:0.13164753"
         d="M 27.235449,340.0089 H 8.4427677 V 315.78062 H 27.235449 Z m 0.611484,-27.31068 H 7.8317707 c -0.44878,0 -0.815796,0.36704 -0.815796,0.81609 v 28.84041 c 0,0.44893 0.367016,0.81608 0.815796,0.81608 H 27.846933 c 0.448814,0 0.816088,-0.36715 0.816088,-0.81608 v -28.84041 c 0,-0.44905 -0.367274,-0.81609 -0.816088,-0.81609" />
      <g
         transform="matrix(0.13164753,0,0,-0.13164753,16.856871,314.37201)"
         id="g5243">
        <path
           inkscape:connector-curvature="0"
           id="path5245"
           style="fill:#f0f0f0;fill-opacity:1;fill-rule:nonzero;stroke:none"
           d="m 0,0 c 0,-0.86 -0.696,-1.56 -1.556,-1.56 -0.86,0 -1.559,0.7 -1.559,1.56 0,0.858 0.699,1.558 1.559,1.558 C -0.696,1.558 0,0.858 0,0" />
      </g>
      <g
         transform="matrix(0.13164753,0,0,-0.13164753,19.231984,314.45835)"
         id="g5247">
        <path
           inkscape:connector-curvature="0"
           id="path5249"
           style="fill:#f0f0f0;fill-opacity:1;fill-rule:nonzero;stroke:none"
           d="m 0,0 c 0,-0.311 -0.254,-0.565 -0.565,-0.565 h -13.592 c -0.311,0 -0.565,0.254 -0.565,0.565 v 1.304 c 0,0.311 0.254,0.565 0.565,0.565 H -0.565 C -0.254,1.869 0,1.615 0,1.304 Z" />
      </g>
      <g
         transform="matrix(0.13164753,0,0,-0.13164753,18.534512,341.58154)"
         id="g5251">
        <path
           inkscape:connector-curvature="0"
           id="path5253"
           style="fill:#f0f0f0;fill-opacity:1;fill-rule:nonzero;stroke:none"
           d="m 0,0 c 0,-2.914 -2.365,-5.279 -5.28,-5.279 -2.917,0 -5.281,2.365 -5.281,5.279 0,2.916 2.364,5.282 5.281,5.282 C -2.365,5.282 0,2.916 0,0" />
      </g>
      <g
         id="g5255"
         transform="matrix(0.13164753,0,0,-0.13164753,-835.22995,1314.4968)">
        <g
           id="g5257" />
        <g
           id="g5269">
          <g
             id="g5267"
             opacity="0.100006"
             clip-path="url(#clipPath5261)">
            <g
               id="g5265"
               transform="translate(6533.917,7609.7031)">
              <path
                 inkscape:connector-curvature="0"
                 id="path5263"
                 style="fill:#ffffff;fill-opacity:1;fill-rule:nonzero;stroke:none"
                 d="m 0,0 h -129.985 c -3.409,0 -6.197,-2.789 -6.197,-6.199 v -219.073 c 0,-3.41 2.788,-6.199 6.197,-6.199 h 22.738 z" />
            </g>
          </g>
        </g>
      </g>
      <path
         inkscape:connector-curvature="0"
         id="path5271"
         style="fill:#fffd10;fill-opacity:1;fill-rule:nonzero;stroke:none;stroke-width:0.13164753"
         d="m 30.578897,344.15263 h -7.535098 v -12.04034 h 7.535098 z" />
      <path
         inkscape:connector-curvature="0"
         id="path5273"
         style="fill:#808080;fill-opacity:1;fill-rule:nonzero;stroke:none;stroke-width:0.13164753"
         d="m 30.578897,344.15263 h -7.535098 v -12.04034 h 7.535098 z m -0.07032,-13.71122 h -7.394488 c -0.334658,0 -0.608609,0.2737 -0.608609,0.60835 v 14.4316 c 0,0.33464 0.273951,0.60833 0.608609,0.60833 h 7.394487 c 0.334657,0 0.608608,-0.27369 0.608608,-0.60833 v -14.4316 c 0,-0.33465 -0.273951,-0.60835 -0.608608,-0.60835" />
      <g
         transform="matrix(0.13164753,0,0,-0.13164753,26.078608,331.32825)"
         id="g5275">
        <path
           inkscape:connector-curvature="0"
           id="path5277"
           style="fill:#f0f0f0;fill-opacity:1;fill-rule:nonzero;stroke:none"
           d="m 0,0 c 0,-0.641 -0.518,-1.161 -1.16,-1.161 -0.64,0 -1.161,0.52 -1.161,1.161 0,0.642 0.521,1.162 1.161,1.162 C -0.518,1.162 0,0.642 0,0" />
      </g>
      <g
         transform="matrix(0.13164753,0,0,-0.13164753,27.849612,331.37351)"
         id="g5279">
        <path
           inkscape:connector-curvature="0"
           id="path5281"
           style="fill:#f0f0f0;fill-opacity:1;fill-rule:nonzero;stroke:none"
           d="m 0,0 c 0,-0.311 -0.254,-0.565 -0.565,-0.565 h -9.847 c -0.31,0 -0.565,0.254 -0.565,0.565 v 0.685 c 0,0.311 0.255,0.565 0.565,0.565 h 9.847 C -0.254,1.25 0,0.996 0,0.685 Z" />
      </g>
      <g
         transform="matrix(0.13164753,0,0,-0.13164753,27.329602,345.13274)"
         id="g5283">
        <path
           inkscape:connector-curvature="0"
           id="path5285"
           style="fill:#f0f0f0;fill-opacity:1;fill-rule:nonzero;stroke:none"
           d="m 0,0 c 0,-2.174 -1.763,-3.937 -3.937,-3.937 -2.176,0 -3.937,1.763 -3.937,3.937 0,2.173 1.761,3.938 3.937,3.938 C -1.763,3.938 0,2.173 0,0" />
      </g>
      <g
         id="g5287"
         transform="matrix(0.13164753,0,0,-0.13164753,-835.22995,1314.4968)">
        <g
           id="g5289" />
        <g
           id="g5301">
          <g
             id="g5299"
             opacity="0.100006"
             clip-path="url(#clipPath5293)">
            <g
               id="g5297"
               transform="translate(6520.0171,7474.9248)">
              <path
                 inkscape:connector-curvature="0"
                 id="path5295"
                 style="fill:#ffffff;fill-opacity:1;fill-rule:nonzero;stroke:none"
                 d="m 0,0 c -2.542,0 -4.623,-2.079 -4.623,-4.621 v -109.623 c 0,-2.542 2.081,-4.621 4.623,-4.621 H 4.103 L 52.836,0 Z" />
            </g>
          </g>
        </g>
      </g>
    </g>
  </g>
</svg>
