<?xml version="1.0" encoding="UTF-8" standalone="no"?>
<!-- Created with Inkscape (http://www.inkscape.org/) -->

<svg
   xmlns:dc="http://purl.org/dc/elements/1.1/"
   xmlns:cc="http://creativecommons.org/ns#"
   xmlns:rdf="http://www.w3.org/1999/02/22-rdf-syntax-ns#"
   xmlns:svg="http://www.w3.org/2000/svg"
   xmlns="http://www.w3.org/2000/svg"
   xmlns:sodipodi="http://sodipodi.sourceforge.net/DTD/sodipodi-0.dtd"
   xmlns:inkscape="http://www.inkscape.org/namespaces/inkscape"
   width="500"
   height="500"
   viewBox="0 0 132.29166 132.29167"
   version="1.1"
   id="svg8601"
   inkscape:version="0.92.1 r"
   sodipodi:docname="picto-section-votre-offre.svg"
   inkscape:export-filename="/home/mi/Dropbox/cooldev/cooldev/maquette site/pictos/picto-section-apropos.png"
   inkscape:export-xdpi="95"
   inkscape:export-ydpi="95">
  <defs
     id="defs8595">
    <inkscape:perspective
       sodipodi:type="inkscape:persp3d"
       inkscape:vp_x="0 : 66.145835 : 1"
       inkscape:vp_y="0 : 1000 : 0"
       inkscape:vp_z="132.29166 : 66.145835 : 1"
       inkscape:persp3d-origin="66.14583 : 44.097223 : 1"
       id="perspective9331" />
  </defs>
  <sodipodi:namedview
     id="base"
     pagecolor="#ffffff"
     bordercolor="#666666"
     borderopacity="1.0"
     inkscape:pageopacity="0.0"
     inkscape:pageshadow="2"
     inkscape:zoom="0.70710678"
     inkscape:cx="144.18834"
     inkscape:cy="435.466"
     inkscape:document-units="mm"
     inkscape:current-layer="g10182"
     showgrid="false"
     units="px"
     inkscape:snap-global="false"
     inkscape:window-width="1600"
     inkscape:window-height="836"
     inkscape:window-x="0"
     inkscape:window-y="27"
     inkscape:window-maximized="1"
     inkscape:snap-center="true" />
  <metadata
     id="metadata8598">
    <rdf:RDF>
      <cc:Work
         rdf:about="">
        <dc:format>image/svg+xml</dc:format>
        <dc:type
           rdf:resource="http://purl.org/dc/dcmitype/StillImage" />
        <dc:title />
      </cc:Work>
    </rdf:RDF>
  </metadata>
  <g
     inkscape:label="Calque 1"
     inkscape:groupmode="layer"
     id="layer1"
     transform="translate(0,-164.70832)">
    <g
       id="g9327"
       transform="matrix(0.08382627,0,0,0.08382627,11.675881,133.90543)"
       style="stroke:#fffd10;stroke-width:43.84922791;stroke-miterlimit:4;stroke-dasharray:none;stroke-opacity:1"
       inkscape:export-xdpi="95"
       inkscape:export-ydpi="95">
      <path
         style="color:#000000;font-style:normal;font-variant:normal;font-weight:normal;font-stretch:normal;font-size:medium;line-height:normal;font-family:sans-serif;font-variant-ligatures:normal;font-variant-position:normal;font-variant-caps:normal;font-variant-numeric:normal;font-variant-alternates:normal;font-feature-settings:normal;text-indent:0;text-align:start;text-decoration:none;text-decoration-line:none;text-decoration-style:solid;text-decoration-color:#000000;letter-spacing:normal;word-spacing:normal;text-transform:none;writing-mode:lr-tb;direction:ltr;text-orientation:mixed;dominant-baseline:auto;baseline-shift:baseline;text-anchor:start;white-space:normal;shape-padding:0;clip-rule:nonzero;display:inline;overflow:visible;visibility:visible;opacity:1;isolation:auto;mix-blend-mode:normal;color-interpolation:sRGB;color-interpolation-filters:linearRGB;solid-color:#000000;solid-opacity:1;vector-effect:none;fill:#fffd10;fill-opacity:1;fill-rule:nonzero;stroke:none;stroke-width:0.87823677;stroke-linecap:butt;stroke-linejoin:round;stroke-miterlimit:4;stroke-dasharray:none;stroke-dashoffset:0;stroke-opacity:1;color-rendering:auto;image-rendering:auto;shape-rendering:auto;text-rendering:auto;enable-background:accumulate"
         d="m -418.92423,524.23731 v 194.22027 h -244.48333 l -0.50467,-189.70309 -21.95611,0.0587 0.53397,200.65131 a 10.979057,10.979057 0 0 0 10.9776,10.94826 h 266.41109 a 10.979057,10.979057 0 0 0 10.97756,-10.97761 V 524.23731 Z"
         id="rect9211"
         inkscape:connector-curvature="0" />
      <path
         style="color:#000000;font-style:normal;font-variant:normal;font-weight:normal;font-stretch:normal;font-size:medium;line-height:normal;font-family:sans-serif;font-variant-ligatures:normal;font-variant-position:normal;font-variant-caps:normal;font-variant-numeric:normal;font-variant-alternates:normal;font-feature-settings:normal;text-indent:0;text-align:start;text-decoration:none;text-decoration-line:none;text-decoration-style:solid;text-decoration-color:#000000;letter-spacing:normal;word-spacing:normal;text-transform:none;writing-mode:lr-tb;direction:ltr;text-orientation:mixed;dominant-baseline:auto;baseline-shift:baseline;text-anchor:start;white-space:normal;shape-padding:0;clip-rule:nonzero;display:inline;overflow:visible;visibility:visible;opacity:1;isolation:auto;mix-blend-mode:normal;color-interpolation:sRGB;color-interpolation-filters:linearRGB;solid-color:#000000;solid-opacity:1;vector-effect:none;fill:#fffd10;fill-opacity:1;fill-rule:nonzero;stroke:none;stroke-width:0.87823677;stroke-linecap:butt;stroke-linejoin:miter;stroke-miterlimit:4;stroke-dasharray:none;stroke-dashoffset:0;stroke-opacity:1;color-rendering:auto;image-rendering:auto;shape-rendering:auto;text-rendering:auto;enable-background:accumulate"
         d="m -701.54008,431.08398 v 70.66717 c 0,22.00182 18.29408,39.87423 40.37006,39.87423 h 14.9373 c 22.07592,0 40.37006,-17.87238 40.37006,-39.87423 v -70.66717 h -10.97851 z m 21.9561,21.95513 h 51.76521 v 48.71204 c 0,10.01613 -7.92335,17.9191 -18.41395,17.9191 h -14.9373 c -10.49066,0 -18.41396,-7.90294 -18.41396,-17.9191 z"
         id="rect9223"
         inkscape:connector-curvature="0" />
      <path
         style="color:#000000;font-style:normal;font-variant:normal;font-weight:normal;font-stretch:normal;font-size:medium;line-height:normal;font-family:sans-serif;font-variant-ligatures:normal;font-variant-position:normal;font-variant-caps:normal;font-variant-numeric:normal;font-variant-alternates:normal;font-feature-settings:normal;text-indent:0;text-align:start;text-decoration:none;text-decoration-line:none;text-decoration-style:solid;text-decoration-color:#000000;letter-spacing:normal;word-spacing:normal;text-transform:none;writing-mode:lr-tb;direction:ltr;text-orientation:mixed;dominant-baseline:auto;baseline-shift:baseline;text-anchor:start;white-space:normal;shape-padding:0;clip-rule:nonzero;display:inline;overflow:visible;visibility:visible;opacity:1;isolation:auto;mix-blend-mode:normal;color-interpolation:sRGB;color-interpolation-filters:linearRGB;solid-color:#000000;solid-opacity:1;vector-effect:none;fill:#fffd10;fill-opacity:1;fill-rule:nonzero;stroke:none;stroke-width:0.87823677;stroke-linecap:butt;stroke-linejoin:miter;stroke-miterlimit:4;stroke-dasharray:none;stroke-dashoffset:0;stroke-opacity:1;color-rendering:auto;image-rendering:auto;shape-rendering:auto;text-rendering:auto;enable-background:accumulate"
         d="m -627.81877,431.08398 v 70.66717 c 0,22.00185 18.29414,39.87423 40.37006,39.87423 h 14.93733 c 22.07596,0 40.37006,-17.8724 40.37006,-39.87423 v -70.66717 h -10.97854 z m 21.95611,21.95513 h 51.76523 v 48.71204 c 0,10.01615 -7.92328,17.9191 -18.41395,17.9191 h -14.93733 c -10.49066,0 -18.41395,-7.90297 -18.41395,-17.9191 z"
         id="rect9223-6"
         inkscape:connector-curvature="0" />
      <path
         style="color:#000000;font-style:normal;font-variant:normal;font-weight:normal;font-stretch:normal;font-size:medium;line-height:normal;font-family:sans-serif;font-variant-ligatures:normal;font-variant-position:normal;font-variant-caps:normal;font-variant-numeric:normal;font-variant-alternates:normal;font-feature-settings:normal;text-indent:0;text-align:start;text-decoration:none;text-decoration-line:none;text-decoration-style:solid;text-decoration-color:#000000;letter-spacing:normal;word-spacing:normal;text-transform:none;writing-mode:lr-tb;direction:ltr;text-orientation:mixed;dominant-baseline:auto;baseline-shift:baseline;text-anchor:start;white-space:normal;shape-padding:0;clip-rule:nonzero;display:inline;overflow:visible;visibility:visible;opacity:1;isolation:auto;mix-blend-mode:normal;color-interpolation:sRGB;color-interpolation-filters:linearRGB;solid-color:#000000;solid-opacity:1;vector-effect:none;fill:#fffd10;fill-opacity:1;fill-rule:nonzero;stroke:none;stroke-width:0.87823677;stroke-linecap:butt;stroke-linejoin:miter;stroke-miterlimit:4;stroke-dasharray:none;stroke-dashoffset:0;stroke-opacity:1;color-rendering:auto;image-rendering:auto;shape-rendering:auto;text-rendering:auto;enable-background:accumulate"
         d="m -554.09743,431.08398 v 70.66717 c 0,22.00185 18.29413,39.87423 40.37006,39.87423 h 14.93731 c 22.07596,0 40.37006,-17.8724 40.37006,-39.87423 v -70.66717 h -10.97756 z m 21.95611,21.95513 h 51.76522 v 48.71204 c 0,10.01615 -7.92329,17.9191 -18.41396,17.9191 h -14.93731 c -10.49061,0 -18.41395,-7.90297 -18.41395,-17.9191 z"
         id="rect9223-1"
         inkscape:connector-curvature="0" />
      <path
         style="color:#000000;font-style:normal;font-variant:normal;font-weight:normal;font-stretch:normal;font-size:medium;line-height:normal;font-family:sans-serif;font-variant-ligatures:normal;font-variant-position:normal;font-variant-caps:normal;font-variant-numeric:normal;font-variant-alternates:normal;font-feature-settings:normal;text-indent:0;text-align:start;text-decoration:none;text-decoration-line:none;text-decoration-style:solid;text-decoration-color:#000000;letter-spacing:normal;word-spacing:normal;text-transform:none;writing-mode:lr-tb;direction:ltr;text-orientation:mixed;dominant-baseline:auto;baseline-shift:baseline;text-anchor:start;white-space:normal;shape-padding:0;clip-rule:nonzero;display:inline;overflow:visible;visibility:visible;opacity:1;isolation:auto;mix-blend-mode:normal;color-interpolation:sRGB;color-interpolation-filters:linearRGB;solid-color:#000000;solid-opacity:1;vector-effect:none;fill:#fffd10;fill-opacity:1;fill-rule:nonzero;stroke:none;stroke-width:0.87823677;stroke-linecap:butt;stroke-linejoin:miter;stroke-miterlimit:4;stroke-dasharray:none;stroke-dashoffset:0;stroke-opacity:1;color-rendering:auto;image-rendering:auto;shape-rendering:auto;text-rendering:auto;enable-background:accumulate"
         d="m -480.3761,431.08398 v 70.66717 c -10e-6,22.00185 18.29412,39.87423 40.37006,39.87423 h 14.93731 c 22.07596,0 40.37006,-17.8724 40.37006,-39.87423 v -70.66717 h -10.97757 z m 21.9561,21.95513 h 51.76522 v 48.71204 c 0,10.01615 -7.92328,17.9191 -18.41395,17.9191 h -14.93731 c -10.49061,0 -18.41396,-7.90297 -18.41396,-17.9191 z"
         id="rect9223-1-2"
         inkscape:connector-curvature="0" />
      <path
         style="color:#000000;font-style:normal;font-variant:normal;font-weight:normal;font-stretch:normal;font-size:medium;line-height:normal;font-family:sans-serif;font-variant-ligatures:normal;font-variant-position:normal;font-variant-caps:normal;font-variant-numeric:normal;font-variant-alternates:normal;font-feature-settings:normal;text-indent:0;text-align:start;text-decoration:none;text-decoration-line:none;text-decoration-style:solid;text-decoration-color:#000000;letter-spacing:normal;word-spacing:normal;text-transform:none;writing-mode:lr-tb;direction:ltr;text-orientation:mixed;dominant-baseline:auto;baseline-shift:baseline;text-anchor:start;white-space:normal;shape-padding:0;clip-rule:nonzero;display:inline;overflow:visible;visibility:visible;opacity:1;isolation:auto;mix-blend-mode:normal;color-interpolation:sRGB;color-interpolation-filters:linearRGB;solid-color:#000000;solid-opacity:1;vector-effect:none;fill:#fffd10;fill-opacity:1;fill-rule:nonzero;stroke:none;stroke-width:0.87823677;stroke-linecap:butt;stroke-linejoin:round;stroke-miterlimit:4;stroke-dasharray:none;stroke-dashoffset:0;stroke-opacity:1;color-rendering:auto;image-rendering:auto;shape-rendering:auto;text-rendering:auto;enable-background:accumulate"
         d="m -518.18099,590.56332 a 10.979057,10.979057 0 0 0 -10.97756,10.96583 l -0.13594,124.78048 21.95611,0.0235 0.12323,-113.81363 h 45.52487 v 116.6292 h 21.95611 V 601.54089 a 10.979057,10.979057 0 0 0 -10.97757,-10.97757 z"
         id="rect9211-9"
         inkscape:connector-curvature="0" />
      <path
         style="color:#000000;font-style:normal;font-variant:normal;font-weight:normal;font-stretch:normal;font-size:medium;line-height:normal;font-family:sans-serif;font-variant-ligatures:normal;font-variant-position:normal;font-variant-caps:normal;font-variant-numeric:normal;font-variant-alternates:normal;font-feature-settings:normal;text-indent:0;text-align:start;text-decoration:none;text-decoration-line:none;text-decoration-style:solid;text-decoration-color:#000000;letter-spacing:normal;word-spacing:normal;text-transform:none;writing-mode:lr-tb;direction:ltr;text-orientation:mixed;dominant-baseline:auto;baseline-shift:baseline;text-anchor:start;white-space:normal;shape-padding:0;clip-rule:nonzero;display:inline;overflow:visible;visibility:visible;opacity:1;isolation:auto;mix-blend-mode:normal;color-interpolation:sRGB;color-interpolation-filters:linearRGB;solid-color:#000000;solid-opacity:1;vector-effect:none;fill:#fffd10;fill-opacity:1;fill-rule:nonzero;stroke:none;stroke-width:0.87823677;stroke-linecap:butt;stroke-linejoin:round;stroke-miterlimit:4;stroke-dasharray:none;stroke-dashoffset:0;stroke-opacity:1;color-rendering:auto;image-rendering:auto;shape-rendering:auto;text-rendering:auto;enable-background:accumulate"
         d="m -628.09747,549.31995 a 10.979057,10.979057 0 0 0 -10.97855,10.97756 v 62.52275 a 10.979057,10.979057 0 0 0 10.97855,10.97854 h 57.1694 a 10.979057,10.979057 0 0 0 10.97855,-10.97854 v -62.52275 a 10.979057,10.979057 0 0 0 -10.97855,-10.97756 z m 10.97756,21.95611 h 35.21428 v 40.56663 h -35.21428 z"
         id="rect9287"
         inkscape:connector-curvature="0" />
    </g>
    <g
       id="g9317"
       transform="matrix(0.04197298,0,0,0.04197298,-2.4058303,160.95744)"
       style="stroke:#fffd10;stroke-width:43.84922791;stroke-miterlimit:4;stroke-dasharray:none;stroke-opacity:1"
       inkscape:export-xdpi="95"
       inkscape:export-ydpi="95">
      <path
         sodipodi:nodetypes="scsss"
         inkscape:connector-curvature="0"
         id="path9291"
         d="m -23.519714,569.61487 c 0,92.69838 -159.292636,409.45691 -159.292636,409.45691 0,0 -176.39789,-316.75853 -176.39789,-409.45691 0,-92.69838 75.14689,-167.84527 167.84527,-167.84526 92.698376,0 167.845256,75.14688 167.845256,167.84526 z"
         style="opacity:1;fill:none;fill-opacity:1;stroke:#fffd10;stroke-width:43.84922791;stroke-linecap:round;stroke-linejoin:round;stroke-miterlimit:4;stroke-dasharray:none;stroke-dashoffset:0;stroke-opacity:1" />
      <path
         style="opacity:1;fill:none;fill-opacity:1;stroke:#fffd10;stroke-width:43.84922791;stroke-linecap:round;stroke-linejoin:round;stroke-miterlimit:4;stroke-dasharray:none;stroke-dashoffset:0;stroke-opacity:1"
         d="m -147.53277,559.99323 a 43.832203,44.901279 0 0 1 -43.8322,44.90127 43.832203,44.901279 0 0 1 -43.83221,-44.90127 43.832203,44.901279 0 0 1 43.83221,-44.90128 43.832203,44.901279 0 0 1 43.8322,44.90128 z"
         id="path9313"
         inkscape:connector-curvature="0" />
    </g>
    <g
       id="g9443"
       style="stroke:#fffd10;stroke-opacity:1"
       transform="matrix(0.27195674,0,0,0.27195674,-42.06515,130.6498)"
       inkscape:export-xdpi="95"
       inkscape:export-ydpi="95">
      <path
         sodipodi:nodetypes="cc"
         inkscape:connector-curvature="0"
         id="path9406"
         d="m 35.280844,253.71285 c 2.846817,14.8289 11.088316,27.41243 27.826164,34.02566"
         style="fill:none;stroke:#fffd10;stroke-width:8.33342838;stroke-linecap:round;stroke-linejoin:round;stroke-miterlimit:4;stroke-dasharray:none;stroke-opacity:1" />
      <path
         inkscape:connector-curvature="0"
         id="rect9389-4"
         d="m 61.80973,277.79164 6.632206,4.44633 c 0.140238,0.094 0.192046,0.30246 0.116196,0.46735 l -2.30109,5.00033 c -0.07588,0.1649 -0.249871,0.22195 -0.390106,0.12795 l -6.632207,-4.44634 c -0.140237,-0.094 -0.192045,-0.30245 -0.116146,-0.46735 l 2.301084,-5.00034 c 0.07588,-0.16488 0.24987,-0.22195 0.390106,-0.12794 z"
         style="opacity:1;fill:#000000;fill-opacity:1;stroke:#fffd10;stroke-width:8;stroke-linecap:round;stroke-linejoin:round;stroke-miterlimit:4;stroke-dasharray:none;stroke-dashoffset:0;stroke-opacity:1" />
      <path
         inkscape:connector-curvature="0"
         id="rect9389-4-7"
         d="m 39.878307,247.98064 4.080438,7.65504 c 0.08628,0.16188 0.0478,0.37199 -0.0863,0.47113 l -4.06629,3.0063 c -0.134088,0.0991 -0.311506,0.0486 -0.397781,-0.11323 l -4.080442,-7.65504 c -0.08628,-0.16187 -0.0478,-0.37199 0.0863,-0.47113 l 4.06629,-3.00631 c 0.134088,-0.0991 0.311507,-0.0486 0.397781,0.11324 z"
         style="opacity:1;fill:#000000;fill-opacity:1;stroke:#fffd10;stroke-width:8;stroke-linecap:round;stroke-linejoin:round;stroke-miterlimit:4;stroke-dasharray:none;stroke-dashoffset:0;stroke-opacity:1" />
    </g>
    <g
       id="g10182"
       transform="matrix(0.36068539,0,0,0.36068539,70.941575,106.00396)">
      <path
         sodipodi:nodetypes="ccsc"
         inkscape:connector-curvature="0"
         id="path10102"
         d="M 92.882974,201.9374 H 28.559738 c 1e-6,-17.76237 14.399248,-32.16162 32.161619,-32.16162 17.762371,0 32.161616,14.39926 32.161617,32.16162 z"
         style="opacity:1;fill:none;fill-opacity:1;stroke:#fffd10;stroke-width:5.45092916;stroke-linecap:round;stroke-linejoin:round;stroke-miterlimit:4;stroke-dasharray:none;stroke-dashoffset:0;stroke-opacity:1"
         inkscape:export-xdpi="90"
         inkscape:export-ydpi="90" />
      <path
         inkscape:connector-curvature="0"
         id="path10105"
         d="m 30.001968,209.29274 62.592565,0.28846"
         style="fill:none;stroke:#fffd10;stroke-width:5.45092916;stroke-linecap:round;stroke-linejoin:miter;stroke-miterlimit:4;stroke-dasharray:none;stroke-opacity:1"
         inkscape:export-xdpi="90"
         inkscape:export-ydpi="90" />
      <rect
         ry="3.6055624"
         y="226.0226"
         x="28.271296"
         height="7.2111249"
         width="66.919243"
         id="rect10107"
         style="opacity:1;fill:none;fill-opacity:1;stroke:#fffd10;stroke-width:5.45092916;stroke-linecap:round;stroke-linejoin:round;stroke-miterlimit:4;stroke-dasharray:none;stroke-dashoffset:0;stroke-opacity:1"
         inkscape:export-xdpi="90"
         inkscape:export-ydpi="90" />
      <path
         sodipodi:nodetypes="csssaac"
         inkscape:connector-curvature="0"
         id="path10105-8"
         d="m 30.001967,220.47039 c 0,0 4.973999,-4.51405 8.077637,-4.64836 3.602937,-0.15592 6.203958,4.44484 9.808233,4.56593 4.325843,0.14533 7.788231,-4.85017 12.113073,-4.67759 3.51792,0.14039 5.99918,4.47908 9.518514,4.5779 4.576612,0.12852 8.116857,-5.40428 12.692645,-5.24917 3.859911,0.13085 10.382465,5.14283 10.382465,5.14283"
         style="fill:none;stroke:#fffd10;stroke-width:5.45092916;stroke-linecap:round;stroke-linejoin:miter;stroke-miterlimit:4;stroke-dasharray:none;stroke-opacity:1"
         inkscape:export-xdpi="90"
         inkscape:export-ydpi="90" />
      <circle
         r="2.3075602"
         cy="190.39963"
         cx="59.567585"
         id="path10124-5"
         style="opacity:1;fill:#fffd10;fill-opacity:1;stroke:none;stroke-width:3.48859477;stroke-linecap:round;stroke-linejoin:round;stroke-miterlimit:4;stroke-dasharray:none;stroke-dashoffset:0;stroke-opacity:1"
         inkscape:export-xdpi="90"
         inkscape:export-ydpi="90" />
      <circle
         r="2.3075604"
         cy="191.12073"
         cx="74.134056"
         id="path10124-5-0"
         style="opacity:1;fill:#fffd10;fill-opacity:1;stroke:none;stroke-width:3.48859477;stroke-linecap:round;stroke-linejoin:round;stroke-miterlimit:4;stroke-dasharray:none;stroke-dashoffset:0;stroke-opacity:1"
         inkscape:export-xdpi="90"
         inkscape:export-ydpi="90" />
      <circle
         r="2.3075604"
         cy="181.8905"
         cx="67.788261"
         id="path10124-5-3"
         style="opacity:1;fill:#fffd10;fill-opacity:1;stroke:none;stroke-width:3.48859477;stroke-linecap:round;stroke-linejoin:round;stroke-miterlimit:4;stroke-dasharray:none;stroke-dashoffset:0;stroke-opacity:1"
         inkscape:export-xdpi="90"
         inkscape:export-ydpi="90" />
      <circle
         r="2.3075604"
         cy="184.77496"
         cx="48.750893"
         id="path10124-5-6"
         style="opacity:1;fill:#fffd10;fill-opacity:1;stroke:none;stroke-width:3.48859477;stroke-linecap:round;stroke-linejoin:round;stroke-miterlimit:4;stroke-dasharray:none;stroke-dashoffset:0;stroke-opacity:1"
         inkscape:export-xdpi="90"
         inkscape:export-ydpi="90" />
      <path
         style="fill:none;fill-opacity:1;stroke:#fffd10;stroke-width:3.59469104;stroke-linecap:butt;stroke-linejoin:round;stroke-miterlimit:4;stroke-dasharray:none;stroke-opacity:1"
         d="m 69.073569,266.29853 2.282629,14.07621 h 4.184821 l 1.521753,-7.79898 z"
         id="path10195"
         inkscape:connector-curvature="0"
         inkscape:export-xdpi="90"
         inkscape:export-ydpi="90" />
      <path
         style="fill:none;fill-opacity:1;stroke:#fffd10;stroke-width:3.59469104;stroke-linecap:round;stroke-linejoin:round;stroke-miterlimit:4;stroke-dasharray:none;stroke-opacity:1"
         d="m 68.122473,250.51034 0.190219,8.17943 c 0,0 9.214096,6.2136 12.934889,10.27183 3.339554,3.64241 3.237795,12.36423 8.179422,12.36423 h 26.250227 c 3.79337,0 2.78974,-6.70885 -2.04452,-6.83292 C 100.08217,274.14512 90.138092,262.7215 89.283873,262.2477 Z"
         id="path10197"
         inkscape:connector-curvature="0"
         sodipodi:nodetypes="ccsssssc"
         inkscape:export-xdpi="90"
         inkscape:export-ydpi="90" />
      <g
         style="font-style:normal;font-variant:normal;font-weight:normal;font-stretch:normal;font-size:medium;line-height:25px;font-family:'Dancing Script OT';-inkscape-font-specification:'Dancing Script OT, Normal';font-variant-ligatures:normal;font-variant-caps:normal;font-variant-numeric:normal;font-feature-settings:normal;text-align:start;letter-spacing:0px;word-spacing:0px;writing-mode:lr-tb;text-anchor:start;fill:#fffd10;fill-opacity:1;stroke:none;stroke-opacity:1"
         transform="matrix(0.40458279,0.16929458,-0.16929458,0.40458279,193.75871,-139.22489)"
         id="g5245-0-4-7-5"
         inkscape:export-filename="/home/mi/Documents/lab-dd/charte-graph-fab-dd/pictos/outils.png"
         inkscape:export-xdpi="90"
         inkscape:export-ydpi="90">
        <g
           id="g4443-0-6-6-1"
           transform="matrix(1.0851989,-0.29089906,0.29089906,1.0851989,22.55666,1181.9619)"
           style="display:inline;opacity:0.77999998;fill:#fffd10;fill-opacity:1;stroke:none;stroke-opacity:1">
          <g
             style="fill:#fffd10;fill-opacity:1;stroke:none;stroke-opacity:1"
             id="g4418-1-7-3-1"
             transform="translate(-26.651179,-76.331666)">
            <path
               inkscape:connector-curvature="0"
               style="opacity:1;fill:#fffd10;fill-opacity:1;fill-rule:nonzero;stroke:none;stroke-width:3.09382343;stroke-miterlimit:4;stroke-dasharray:none;stroke-opacity:1"
               d="m -596.15234,1142.2539 c -0.53529,-0.01 -1.07118,-0.01 -1.60743,0.01 -4.80475,0.1438 -9.64188,1.3042 -14.39648,3.6699 -5.75844,2.8652 39.15178,25.7806 22.81055,49.6367 -34.66729,50.6098 -56.85504,-32.8237 -63.89844,-19.0215 -28.27367,55.4051 36.08011,94.9595 76.01562,81.6758 l 92.28516,124.5117 c -6.6091,19.4145 -2.53839,40.7762 6.43359,54.3047 14.27136,21.5193 37.72363,35.8948 59.45899,25.0801 5.75842,-2.8652 -39.15373,-25.7806 -22.8125,-49.6367 34.66728,-50.6099 56.85506,32.8237 63.89844,19.0215 29.28331,-57.3836 -40.79462,-97.7645 -80.19532,-80.0489 l -89.96289,-121.3867 c 9.1038,-20.5945 5.13504,-44.4134 -4.57617,-59.0566 -10.80108,-16.2867 -26.85917,-28.4806 -43.45312,-28.7598 z"
               transform="matrix(0.32957206,-0.04456309,0.04456309,0.32957206,353.06215,-645.58393)"
               id="path4369-3-6-5-0" />
          </g>
          <g
             style="fill:#fffd10;fill-opacity:1;stroke:none;stroke-opacity:1"
             id="g4413-0-7-0-0"
             transform="translate(-109.5312,-83.465161)" />
        </g>
        <g
           id="g4274-4-5-5-6"
           transform="matrix(0.63374502,0.92771014,-0.92771014,0.63374502,63.441896,797.36683)"
           style="display:inline;fill:#fffd10;fill-opacity:1;stroke:none;stroke-opacity:1">
          <g
             transform="rotate(-40.035523,79.201814,-67.300826)"
             id="g5225-9-3-9-2"
             style="fill:#fffd10;fill-opacity:1;stroke:none;stroke-opacity:1">
            <path
               inkscape:connector-curvature="0"
               style="fill:#fffd10;fill-opacity:1;fill-rule:evenodd;stroke:none;stroke-width:3.0068748px;stroke-linecap:butt;stroke-linejoin:miter;stroke-opacity:1"
               d="m -423.19336,1144.9648 -32.57422,30.375 c -2.17041,6.7963 -0.47454,13.9057 2.46875,21.1172 l -65.27344,82.5528 23.58789,18.6504 65.27344,-82.5528 c 7.88433,0.6487 15.14716,0.2163 21.11719,-2.4687 l 23.30664,-37.7012 z m -116.61719,135.875 -18.52929,24.2266 c -2.82381,5.1175 -1.47665,11.7442 -0.14649,18.3652 -7.63131,0.018 -13.20114,2.4605 -18.50195,5.2207 l -74.59766,94.3457 c -1.37576,6.7073 -1.80464,13.5571 2.4668,21.1172 l 23.58789,18.6504 c 8.61784,2.967 15.32522,1.3489 21.11719,-2.4687 l 74.59765,-94.3457 c 1.6452,-6.0859 1.61244,-12.779 1.14649,-19.6289 6.19047,-0.2368 12.08552,-1.3724 17.5039,-3.9571 l 19.31446,-24.4297 c -13.49546,-17.8834 -29.60594,-29.9723 -47.95899,-37.0957 z"
               transform="matrix(0.26087567,-0.20627046,0.20627046,0.26087567,-54.54304,-514.74568)"
               id="path4430-8-8-3-5" />
          </g>
        </g>
      </g>
    </g>
  </g>
</svg>
